<?xml version="1.0" encoding="UTF-8"?>
<svg id="Layer_2" data-name="Layer 2" xmlns="http://www.w3.org/2000/svg" viewBox="0 0 130.82 130.82">
  <defs>
    <style>
      .cls-1 {
        opacity: .9;
      }

      .cls-2 {
        fill: none;
        stroke: #000;
        stroke-miterlimit: 10;
        stroke-width: 2px;
      }
    </style>
  </defs>
  <g id="Graphic_Elements" data-name="Graphic Elements">
    <g class="cls-1">
      <ellipse class="cls-2" cx="65.41" cy="65.41" rx="28.06" ry="64.46" transform="translate(-27.09 65.41) rotate(-45)"/>
      <ellipse class="cls-2" cx="59.54" cy="71.28" rx="28.06" ry="64.46" transform="translate(-32.97 62.98) rotate(-45)"/>
      <ellipse class="cls-2" cx="68.35" cy="62.47" rx="28.06" ry="64.46" transform="translate(-24.16 66.63) rotate(-45)"/>
      <ellipse class="cls-2" cx="74.22" cy="56.6" rx="28.06" ry="64.46" transform="translate(-18.28 69.06) rotate(-45)"/>
      <ellipse class="cls-2" cx="77.16" cy="53.66" rx="28.06" ry="64.46" transform="translate(-15.35 70.28) rotate(-45)"/>
      <ellipse class="cls-2" cx="71.28" cy="59.54" rx="28.06" ry="64.46" transform="translate(-21.22 67.84) rotate(-45)"/>
      <ellipse class="cls-2" cx="62.47" cy="68.35" rx="28.06" ry="64.46" transform="translate(-30.03 64.19) rotate(-45)"/>
      <ellipse class="cls-2" cx="50.72" cy="80.09" rx="28.06" ry="64.46" transform="translate(-41.78 59.33) rotate(-45)"/>
      <ellipse class="cls-2" cx="56.6" cy="74.22" rx="28.06" ry="64.46" transform="translate(-35.9 61.76) rotate(-45)"/>
      <ellipse class="cls-2" cx="53.66" cy="77.16" rx="28.06" ry="64.46" transform="translate(-38.84 60.54) rotate(-45)"/>
      <ellipse class="cls-2" cx="80.09" cy="50.72" rx="28.06" ry="64.46" transform="translate(-12.41 71.49) rotate(-45)"/>
    </g>
  </g>
</svg>