<?xml version="1.0" encoding="UTF-8"?>
<svg id="Layer_2" data-name="Layer 2" xmlns="http://www.w3.org/2000/svg" viewBox="0 0 149.74 132.38">
  <defs>
    <style>
      .cls-1 {
        opacity: .9;
      }

      .cls-2 {
        fill: none;
        stroke: #000;
        stroke-miterlimit: 10;
        stroke-width: .8px;
      }
    </style>
  </defs>
  <g id="Graphic_Elements" data-name="Graphic Elements">
    <g class="cls-1">
      <ellipse class="cls-2" cx="74.87" cy="80.48" rx="34.37" ry="74.62" transform="translate(-10.8 149.36) rotate(-85.87)"/>
      <ellipse class="cls-2" cx="73.79" cy="79.8" rx="33.53" ry="72.81" transform="translate(-8.13 151.24) rotate(-88.34)"/>
      <ellipse class="cls-2" cx="72.71" cy="79.12" rx="71.13" ry="32.76" transform="translate(-1.27 1.19) rotate(-.93)"/>
      <ellipse class="cls-2" cx="71.63" cy="78.44" rx="69.61" ry="32.06" transform="translate(-4.83 4.7) rotate(-3.64)"/>
      <ellipse class="cls-2" cx="70.55" cy="77.76" rx="68.26" ry="31.43" transform="translate(-8.3 8.43) rotate(-6.46)"/>
      <ellipse class="cls-2" cx="69.46" cy="77.08" rx="67.07" ry="30.89" transform="translate(-11.65 12.37) rotate(-9.39)"/>
      <ellipse class="cls-2" cx="68.38" cy="76.4" rx="66.07" ry="30.42" transform="translate(-14.83 16.5) rotate(-12.42)"/>
      <ellipse class="cls-2" cx="67.3" cy="75.72" rx="65.25" ry="30.05" transform="translate(-17.82 20.79) rotate(-15.53)"/>
      <ellipse class="cls-2" cx="66.22" cy="75.04" rx="64.63" ry="29.76" transform="translate(-20.58 25.22) rotate(-18.72)"/>
      <ellipse class="cls-2" cx="65.14" cy="74.36" rx="64.22" ry="29.57" transform="translate(-23.07 29.74) rotate(-21.95)"/>
      <ellipse class="cls-2" cx="64.06" cy="73.68" rx="64.01" ry="29.48" transform="translate(-25.28 34.31) rotate(-25.21)"/>
      <ellipse class="cls-2" cx="62.98" cy="73" rx="64.01" ry="29.48" transform="translate(-27.19 38.88) rotate(-28.49)"/>
      <ellipse class="cls-2" cx="61.9" cy="72.32" rx="64.22" ry="29.57" transform="translate(-28.79 43.4) rotate(-31.75)"/>
      <ellipse class="cls-2" cx="60.82" cy="71.64" rx="64.64" ry="29.76" transform="translate(-30.08 47.82) rotate(-34.99)"/>
      <ellipse class="cls-2" cx="59.74" cy="70.95" rx="65.26" ry="30.05" transform="translate(-31.08 52.08) rotate(-38.17)"/>
      <ellipse class="cls-2" cx="58.65" cy="70.27" rx="66.08" ry="30.42" transform="translate(-31.79 56.16) rotate(-41.28)"/>
      <ellipse class="cls-2" cx="57.57" cy="69.59" rx="67.08" ry="30.88" transform="translate(-32.24 60.01) rotate(-44.31)"/>
      <ellipse class="cls-2" cx="56.49" cy="68.91" rx="68.27" ry="31.43" transform="translate(-32.46 63.6) rotate(-47.24)"/>
      <ellipse class="cls-2" cx="55.41" cy="68.23" rx="69.63" ry="32.05" transform="translate(-32.48 66.91) rotate(-50.06)"/>
      <ellipse class="cls-2" cx="54.33" cy="67.55" rx="71.15" ry="32.75" transform="translate(-32.33 69.93) rotate(-52.77)"/>
      <ellipse class="cls-2" cx="53.25" cy="66.87" rx="72.82" ry="33.52" transform="translate(-32.04 72.66) rotate(-55.36)"/>
      <ellipse class="cls-2" cx="52.17" cy="66.19" rx="74.64" ry="34.36" transform="translate(-31.64 75.1) rotate(-57.82)"/>
    </g>
  </g>
</svg>